<svg width="76" height="76" viewBox="0 0 76 76" fill="none" xmlns="http://www.w3.org/2000/svg">
<g clip-path="url(#clip0_8_45)">
<path d="M38 74.7333C58.2873 74.7333 74.7333 58.2873 74.7333 38C74.7333 17.7127 58.2873 1.26666 38 1.26666C17.7127 1.26666 1.26666 17.7127 1.26666 38C1.26666 58.2873 17.7127 74.7333 38 74.7333Z" stroke="#C5B27D"/>
<mask id="mask0_8_45" style="mask-type:luminance" maskUnits="userSpaceOnUse" x="17" y="20" width="42" height="39">
<path d="M58.2667 20.2667H17.7333V58.2667H58.2667V20.2667Z" fill="white"/>
</mask>
<g mask="url(#mask0_8_45)">
<path d="M19.844 39.8536L27.5492 42.484L30.5317 51.2567C30.7225 51.8186 31.4736 52.0263 31.9722 51.6534L36.2672 48.4508C36.7174 48.1153 37.3588 48.0986 37.8293 48.411L45.5759 53.5552C46.1095 53.9098 46.8649 53.6423 46.9987 53.0531L52.6736 28.0861C52.8198 27.4421 52.1279 26.905 51.4576 27.1421L19.835 38.2997C19.0546 38.5751 19.0614 39.5856 19.844 39.8536ZM30.0509 41.0838L45.1098 32.6007C45.3806 32.4487 45.659 32.7836 45.4267 32.9807L32.9987 43.547C32.5617 43.9189 32.28 44.4164 32.2002 44.9568L31.7769 47.8263C31.7209 48.2093 31.1324 48.2476 31.0169 47.8767L29.3885 42.6441C29.202 42.0473 29.4738 41.4096 30.0509 41.0838Z" fill="#C5B27D"/>
</g>
</g>
<defs>
<clipPath id="clip0_8_45">
<rect width="76" height="76" fill="white"/>
</clipPath>
</defs>
</svg>
