<svg width="76" height="76" viewBox="0 0 76 76" fill="none" xmlns="http://www.w3.org/2000/svg">
<g clip-path="url(#clip0_8_52)">
<path d="M74.7333 37.9967C74.7333 58.2548 58.2504 74.7333 37.997 74.7333C30.5381 74.7333 23.5951 72.4992 17.7906 68.6614L17.284 68.3265L16.7057 68.5117L4.49357 72.4229L8.43916 60.6868L8.64735 60.0676L8.26345 59.5389C3.86596 53.483 1.26666 46.0438 1.26666 38.0061C1.26666 17.7475 17.7438 1.26666 37.997 1.26666C58.2537 1.26666 74.7392 17.7482 74.7333 37.9967Z" stroke="#C5B27D"/>
<path d="M58.1273 46.2435C57.8892 45.8609 57.266 45.6279 56.3337 45.1617C55.404 44.6956 50.8009 42.4536 49.9472 42.1496C49.0859 41.838 48.4627 41.6809 47.8395 42.6107C47.2239 43.5404 45.4303 45.6279 44.8805 46.2511C44.3359 46.8717 43.7912 46.9503 42.8564 46.4917C41.9216 46.0205 38.9069 45.0477 35.3349 41.8887C32.5559 39.4263 30.6787 36.3939 30.1365 35.4641C29.5868 34.5369 30.0808 34.0353 30.5444 33.5743C30.9624 33.1563 31.4792 32.49 31.9479 31.9453C32.4165 31.4057 32.5711 31.0232 32.8827 30.4025C33.1892 29.7819 33.0347 29.2423 32.8041 28.7736C32.5711 28.3075 30.704 23.7475 29.9212 21.8905C29.1435 20.0361 28.3657 20.3427 27.8185 20.3427C27.2739 20.3427 26.6507 20.2667 26.0275 20.2667C25.4043 20.2667 24.3909 20.4921 23.5372 21.4219C22.6835 22.3516 20.2667 24.5936 20.2667 29.1587C20.2667 33.7288 23.6132 38.1343 24.0819 38.7524C24.5531 39.368 30.552 49.0428 40.0545 52.7567C49.5621 56.468 49.5621 55.2292 51.2747 55.0721C52.9923 54.9151 56.8075 52.8301 57.5827 50.6667C58.3629 48.4931 58.3629 46.6311 58.1273 46.2435Z" fill="#C5B27D"/>
</g>
<defs>
<clipPath id="clip0_8_52">
<rect width="76" height="76" fill="white"/>
</clipPath>
</defs>
</svg>
