<svg width="76" height="76" viewBox="0 0 76 76" fill="none" xmlns="http://www.w3.org/2000/svg">
<g clip-path="url(#clip0_8_55)">
<path d="M38 74.7333C58.2873 74.7333 74.7333 58.2873 74.7333 38C74.7333 17.7127 58.2873 1.26666 38 1.26666C17.7127 1.26666 1.26667 17.7127 1.26667 38C1.26667 58.2873 17.7127 74.7333 38 74.7333Z" stroke="#C5B27D"/>
<path d="M58.0392 25.426C56.4703 23.5608 53.5734 22.8 48.0409 22.8H27.9584C22.2994 22.8 19.3534 23.6099 17.7903 25.5955C16.2663 27.5317 16.2663 30.3845 16.2663 34.3327V41.858C16.2663 49.5069 18.0745 53.3905 27.9584 53.3905H48.0411C52.8387 53.3905 55.4972 52.7192 57.2171 51.0733C58.9811 49.3853 59.7335 46.6293 59.7335 41.858V34.3327C59.7335 30.1689 59.6157 27.2994 58.0392 25.426ZM44.1725 39.1342L35.053 43.9004C34.849 44.007 34.6261 44.0597 34.4034 44.0597C34.1514 44.0597 33.8998 43.9921 33.6771 43.8571C33.2576 43.603 33.0012 43.1482 33.0012 42.6578V33.156C33.0012 32.6663 33.2568 32.2121 33.6753 31.9577C34.0944 31.7034 34.6152 31.6859 35.0497 31.9116L44.1692 36.6472C44.633 36.8881 44.9246 37.3669 44.9251 37.8895C44.9259 38.4127 44.6356 38.8922 44.1725 39.1342Z" fill="#C5B27D"/>
</g>
<defs>
<clipPath id="clip0_8_55">
<rect width="76" height="76" fill="white"/>
</clipPath>
</defs>
</svg>
